<mxfile host="app.diagrams.net" modified="2023-07-27T07:36:15.407Z" agent="Mozilla/5.0 (X11; Linux x86_64) AppleWebKit/537.36 (KHTML, like Gecko) Chrome/111.0.0.0 Safari/537.36" etag="vj0VYH1PKStt3G3mx0WD" version="21.6.3" type="github">
  <diagram name="第 1 页" id="lXds7RLkqQ-f8YmvRl1O">
    <mxGraphModel dx="1871" dy="441" grid="1" gridSize="10" guides="1" tooltips="1" connect="1" arrows="1" fold="1" page="1" pageScale="1" pageWidth="850" pageHeight="1100" math="0" shadow="0">
      <root>
        <mxCell id="0" />
        <mxCell id="1" parent="0" />
        <mxCell id="al4bxPR0ltXzujJzHCmy-3" value="" style="edgeStyle=orthogonalEdgeStyle;rounded=0;orthogonalLoop=1;jettySize=auto;html=1;" edge="1" parent="1" source="al4bxPR0ltXzujJzHCmy-1" target="al4bxPR0ltXzujJzHCmy-2">
          <mxGeometry x="0.2" y="110" relative="1" as="geometry">
            <mxPoint as="offset" />
          </mxGeometry>
        </mxCell>
        <mxCell id="al4bxPR0ltXzujJzHCmy-4" value="cgi" style="edgeLabel;html=1;align=center;verticalAlign=middle;resizable=0;points=[];" vertex="1" connectable="0" parent="al4bxPR0ltXzujJzHCmy-3">
          <mxGeometry x="-0.1" y="-2" relative="1" as="geometry">
            <mxPoint as="offset" />
          </mxGeometry>
        </mxCell>
        <mxCell id="al4bxPR0ltXzujJzHCmy-1" value="web接口" style="rounded=1;whiteSpace=wrap;html=1;" vertex="1" parent="1">
          <mxGeometry x="360" y="80" width="120" height="60" as="geometry" />
        </mxCell>
        <mxCell id="al4bxPR0ltXzujJzHCmy-2" value="bslora-config.json" style="rounded=1;whiteSpace=wrap;html=1;" vertex="1" parent="1">
          <mxGeometry x="360" y="190" width="120" height="60" as="geometry" />
        </mxCell>
        <mxCell id="al4bxPR0ltXzujJzHCmy-6" value="" style="edgeStyle=orthogonalEdgeStyle;rounded=0;orthogonalLoop=1;jettySize=auto;html=1;" edge="1" parent="1" source="al4bxPR0ltXzujJzHCmy-5" target="al4bxPR0ltXzujJzHCmy-2">
          <mxGeometry relative="1" as="geometry" />
        </mxCell>
        <mxCell id="al4bxPR0ltXzujJzHCmy-7" value="加载配置启动" style="edgeLabel;html=1;align=center;verticalAlign=middle;resizable=0;points=[];" vertex="1" connectable="0" parent="al4bxPR0ltXzujJzHCmy-6">
          <mxGeometry x="-0.16" y="3" relative="1" as="geometry">
            <mxPoint as="offset" />
          </mxGeometry>
        </mxCell>
        <mxCell id="al4bxPR0ltXzujJzHCmy-23" style="edgeStyle=orthogonalEdgeStyle;rounded=0;orthogonalLoop=1;jettySize=auto;html=1;entryX=0.55;entryY=0.95;entryDx=0;entryDy=0;entryPerimeter=0;" edge="1" parent="1" source="al4bxPR0ltXzujJzHCmy-5" target="al4bxPR0ltXzujJzHCmy-18">
          <mxGeometry relative="1" as="geometry">
            <Array as="points">
              <mxPoint x="-80" y="480" />
              <mxPoint x="-80" y="461" />
            </Array>
          </mxGeometry>
        </mxCell>
        <mxCell id="al4bxPR0ltXzujJzHCmy-5" value="bslora" style="rounded=1;whiteSpace=wrap;html=1;" vertex="1" parent="1">
          <mxGeometry x="140" y="300" width="560" height="250" as="geometry" />
        </mxCell>
        <mxCell id="al4bxPR0ltXzujJzHCmy-13" value="" style="edgeStyle=orthogonalEdgeStyle;rounded=0;orthogonalLoop=1;jettySize=auto;html=1;" edge="1" parent="1" source="al4bxPR0ltXzujJzHCmy-8" target="al4bxPR0ltXzujJzHCmy-9">
          <mxGeometry relative="1" as="geometry">
            <Array as="points">
              <mxPoint x="610" y="540" />
              <mxPoint x="610" y="540" />
            </Array>
          </mxGeometry>
        </mxCell>
        <mxCell id="al4bxPR0ltXzujJzHCmy-16" value="lora下行" style="edgeLabel;html=1;align=center;verticalAlign=middle;resizable=0;points=[];" vertex="1" connectable="0" parent="al4bxPR0ltXzujJzHCmy-13">
          <mxGeometry x="-0.0909" y="2" relative="1" as="geometry">
            <mxPoint x="-2" as="offset" />
          </mxGeometry>
        </mxCell>
        <mxCell id="al4bxPR0ltXzujJzHCmy-8" value="lora-hal" style="rounded=1;whiteSpace=wrap;html=1;" vertex="1" parent="1">
          <mxGeometry x="570" y="470" width="120" height="60" as="geometry" />
        </mxCell>
        <mxCell id="al4bxPR0ltXzujJzHCmy-12" value="" style="edgeStyle=orthogonalEdgeStyle;rounded=0;orthogonalLoop=1;jettySize=auto;html=1;" edge="1" parent="1" source="al4bxPR0ltXzujJzHCmy-9" target="al4bxPR0ltXzujJzHCmy-8">
          <mxGeometry relative="1" as="geometry">
            <Array as="points">
              <mxPoint x="660" y="590" />
              <mxPoint x="660" y="590" />
            </Array>
          </mxGeometry>
        </mxCell>
        <mxCell id="al4bxPR0ltXzujJzHCmy-15" value="lora上行" style="edgeLabel;html=1;align=center;verticalAlign=middle;resizable=0;points=[];" vertex="1" connectable="0" parent="al4bxPR0ltXzujJzHCmy-12">
          <mxGeometry x="-0.0182" y="-4" relative="1" as="geometry">
            <mxPoint as="offset" />
          </mxGeometry>
        </mxCell>
        <mxCell id="al4bxPR0ltXzujJzHCmy-9" value="lora dtu" style="rounded=1;whiteSpace=wrap;html=1;" vertex="1" parent="1">
          <mxGeometry x="570" y="620" width="120" height="60" as="geometry" />
        </mxCell>
        <mxCell id="al4bxPR0ltXzujJzHCmy-29" value="" style="edgeStyle=orthogonalEdgeStyle;rounded=0;orthogonalLoop=1;jettySize=auto;html=1;" edge="1" parent="1" source="al4bxPR0ltXzujJzHCmy-17" target="al4bxPR0ltXzujJzHCmy-27">
          <mxGeometry relative="1" as="geometry" />
        </mxCell>
        <mxCell id="al4bxPR0ltXzujJzHCmy-30" value="lora 下行" style="edgeLabel;html=1;align=center;verticalAlign=middle;resizable=0;points=[];" vertex="1" connectable="0" parent="al4bxPR0ltXzujJzHCmy-29">
          <mxGeometry x="-0.4296" y="-1" relative="1" as="geometry">
            <mxPoint x="14" y="-1" as="offset" />
          </mxGeometry>
        </mxCell>
        <mxCell id="al4bxPR0ltXzujJzHCmy-32" value="" style="edgeStyle=orthogonalEdgeStyle;rounded=0;orthogonalLoop=1;jettySize=auto;html=1;" edge="1" parent="1" source="al4bxPR0ltXzujJzHCmy-17" target="al4bxPR0ltXzujJzHCmy-31">
          <mxGeometry relative="1" as="geometry" />
        </mxCell>
        <mxCell id="al4bxPR0ltXzujJzHCmy-33" value="修改配置" style="edgeLabel;html=1;align=center;verticalAlign=middle;resizable=0;points=[];" vertex="1" connectable="0" parent="al4bxPR0ltXzujJzHCmy-32">
          <mxGeometry x="-0.3958" y="-1" relative="1" as="geometry">
            <mxPoint as="offset" />
          </mxGeometry>
        </mxCell>
        <mxCell id="al4bxPR0ltXzujJzHCmy-17" value="udp clinet" style="rounded=1;whiteSpace=wrap;html=1;" vertex="1" parent="1">
          <mxGeometry x="150" y="470" width="120" height="60" as="geometry" />
        </mxCell>
        <mxCell id="al4bxPR0ltXzujJzHCmy-22" style="edgeStyle=orthogonalEdgeStyle;rounded=0;orthogonalLoop=1;jettySize=auto;html=1;entryX=0;entryY=0.25;entryDx=0;entryDy=0;" edge="1" parent="1" source="al4bxPR0ltXzujJzHCmy-18" target="al4bxPR0ltXzujJzHCmy-5">
          <mxGeometry relative="1" as="geometry">
            <Array as="points">
              <mxPoint x="-80" y="363" />
            </Array>
          </mxGeometry>
        </mxCell>
        <mxCell id="al4bxPR0ltXzujJzHCmy-26" value="tcp/udp/MQTT/&lt;br style=&quot;border-color: var(--border-color);&quot;&gt;modbus" style="edgeLabel;html=1;align=center;verticalAlign=middle;resizable=0;points=[];" vertex="1" connectable="0" parent="al4bxPR0ltXzujJzHCmy-22">
          <mxGeometry x="-0.0256" y="-1" relative="1" as="geometry">
            <mxPoint as="offset" />
          </mxGeometry>
        </mxCell>
        <mxCell id="al4bxPR0ltXzujJzHCmy-18" value="边缘网关/服务器" style="ellipse;shape=cloud;whiteSpace=wrap;html=1;" vertex="1" parent="1">
          <mxGeometry x="-140" y="385" width="120" height="80" as="geometry" />
        </mxCell>
        <mxCell id="al4bxPR0ltXzujJzHCmy-28" value="" style="edgeStyle=orthogonalEdgeStyle;rounded=0;orthogonalLoop=1;jettySize=auto;html=1;" edge="1" parent="1" source="al4bxPR0ltXzujJzHCmy-27" target="al4bxPR0ltXzujJzHCmy-8">
          <mxGeometry relative="1" as="geometry" />
        </mxCell>
        <mxCell id="al4bxPR0ltXzujJzHCmy-27" value="下行队列" style="rounded=1;whiteSpace=wrap;html=1;" vertex="1" parent="1">
          <mxGeometry x="360" y="470" width="120" height="60" as="geometry" />
        </mxCell>
        <mxCell id="al4bxPR0ltXzujJzHCmy-34" style="edgeStyle=orthogonalEdgeStyle;rounded=0;orthogonalLoop=1;jettySize=auto;html=1;entryX=0;entryY=0.5;entryDx=0;entryDy=0;" edge="1" parent="1" source="al4bxPR0ltXzujJzHCmy-31" target="al4bxPR0ltXzujJzHCmy-2">
          <mxGeometry relative="1" as="geometry">
            <Array as="points">
              <mxPoint x="210" y="220" />
            </Array>
          </mxGeometry>
        </mxCell>
        <mxCell id="al4bxPR0ltXzujJzHCmy-36" value="写入配置" style="edgeLabel;html=1;align=center;verticalAlign=middle;resizable=0;points=[];" vertex="1" connectable="0" parent="al4bxPR0ltXzujJzHCmy-34">
          <mxGeometry x="0.0202" relative="1" as="geometry">
            <mxPoint as="offset" />
          </mxGeometry>
        </mxCell>
        <mxCell id="al4bxPR0ltXzujJzHCmy-31" value="配置文件服务" style="rounded=1;whiteSpace=wrap;html=1;" vertex="1" parent="1">
          <mxGeometry x="150" y="320" width="120" height="60" as="geometry" />
        </mxCell>
      </root>
    </mxGraphModel>
  </diagram>
</mxfile>
